<svg width="55" height="52" viewBox="0 0 55 52" fill="none" xmlns="http://www.w3.org/2000/svg">
<rect width="55" height="52" rx="9" fill="#00AE86"/>
<path d="M15.3321 24.9498V12.9494H12.5401V17.2854C11.8466 16.4218 10.8977 16.044 9.93046 16.044C7.72235 16.044 6.04346 17.7532 6.04346 20.5958C6.04346 23.5464 7.75885 25.1657 9.93046 25.1657C10.9159 25.1657 11.8101 24.7699 12.5401 23.9423V24.9498H15.3321ZM10.8429 22.7188C9.72973 22.7188 8.90853 21.8912 8.90853 20.5958C8.90853 19.3004 9.72973 18.4908 10.8429 18.4908C11.4451 18.4908 12.1751 18.7967 12.5401 19.2644V21.9272C12.1751 22.395 11.4451 22.7188 10.8429 22.7188Z" fill="white"/>
<path d="M21.6065 25.1657C24.6358 25.1657 26.4242 23.0427 26.4242 20.5958C26.4242 18.149 24.6358 16.044 21.6065 16.044C18.6136 16.044 16.8253 18.149 16.8253 20.5958C16.8253 23.0427 18.6136 25.1657 21.6065 25.1657ZM21.6065 22.7188C20.402 22.7188 19.7086 21.7653 19.7086 20.5958C19.7086 19.4444 20.402 18.4908 21.6065 18.4908C22.8474 18.4908 23.5408 19.4444 23.5408 20.5958C23.5408 21.7653 22.8474 22.7188 21.6065 22.7188Z" fill="white"/>
<path d="M32.1209 25.1657C35.1502 25.1657 36.9386 23.0427 36.9386 20.5958C36.9386 18.149 35.1502 16.044 32.1209 16.044C29.1281 16.044 27.3397 18.149 27.3397 20.5958C27.3397 23.0427 29.1281 25.1657 32.1209 25.1657ZM32.1209 22.7188C30.9165 22.7188 30.2231 21.7653 30.2231 20.5958C30.2231 19.4444 30.9165 18.4908 32.1209 18.4908C33.3619 18.4908 34.0553 19.4444 34.0553 20.5958C34.0553 21.7653 33.3619 22.7188 32.1209 22.7188Z" fill="white"/>
<path d="M41.2303 24.9498V19.4084C41.5952 18.9226 42.5624 18.6167 43.2924 18.6167C43.5844 18.6167 43.8216 18.6347 43.9858 18.6887V16.026C42.9457 16.026 41.8142 16.6197 41.2303 17.3214V16.2599H38.4199V24.9498H41.2303Z" fill="white"/>
<path d="M15.4051 39.4417V33.2526C15.4051 31.6513 14.4927 30.5358 12.4853 30.5358C11.0071 30.5358 9.96696 31.2015 9.43775 31.8132V27.4413H6.62742V39.4417H9.43775V33.8283C9.76623 33.4325 10.3137 32.9827 11.1349 32.9827C12.0291 32.9827 12.5948 33.3245 12.5948 34.386V39.4417H15.4051Z" fill="white"/>
<path d="M25.4557 39.4417V34.0082C25.4557 31.3095 23.4666 30.5358 21.3497 30.5358C19.9993 30.5358 18.4846 30.9317 17.3532 31.8852L18.3934 33.8103C19.1051 33.2166 19.981 32.8747 20.857 32.8747C21.9884 32.8747 22.6454 33.3965 22.6454 34.1522V35.0157C22.1161 34.368 21.076 33.9902 19.908 33.9902C18.5576 33.9902 16.8787 34.6919 16.8787 36.7969C16.8787 38.74 18.5576 39.6576 19.908 39.6576C21.0395 39.6576 22.0979 39.2258 22.6454 38.5781V39.4417H25.4557ZM21.076 37.8404C20.346 37.8404 19.6708 37.5166 19.6708 36.8329C19.6708 36.1492 20.346 35.8254 21.076 35.8254C21.6964 35.8254 22.3534 36.0233 22.6454 36.4371V37.2107C22.3534 37.6245 21.6964 37.8404 21.076 37.8404Z" fill="white"/>
<path d="M36.2733 39.4417V33.2886C36.2733 31.6873 35.3608 30.5358 33.3717 30.5358C31.8753 30.5358 30.8351 31.2015 30.3059 31.8132V30.7517H27.4956V39.4417H30.3059V33.8283C30.6344 33.4325 31.1818 32.9827 32.0213 32.9827C32.8972 32.9827 33.4629 33.3605 33.4629 34.422V39.4417H36.2733Z" fill="white"/>
<path d="M47.036 39.4417V27.4413H44.2439V31.7773C43.5504 30.9137 42.6015 30.5358 41.6343 30.5358C39.4262 30.5358 37.7473 32.245 37.7473 35.0877C37.7473 38.0383 39.4627 39.6576 41.6343 39.6576C42.6197 39.6576 43.5139 39.2618 44.2439 38.4341V39.4417H47.036ZM42.5467 37.2107C41.4336 37.2107 40.6124 36.3831 40.6124 35.0877C40.6124 33.7923 41.4336 32.9827 42.5467 32.9827C43.149 32.9827 43.8789 33.2886 44.2439 33.7563V36.4191C43.8789 36.8869 43.149 37.2107 42.5467 37.2107Z" fill="white"/>
</svg>
